<svg width="70" height="38" viewBox="0 0 70 38" fill="none" xmlns="http://www.w3.org/2000/svg">
<path d="M24.5177 4.36483H19.4779C11.4052 4.36483 4.46113 10.7784 4.46113 18.9856C4.46113 26.152 10.7198 33.6064 18.5053 33.6064L19.9663 33.5858V21.4251H12.2301V17.0521H24.5424V38H19.4779C8.67191 38 0 29.4102 0 19.0103C0 8.61038 8.68422 0.0205664 19.4574 0.0205664H24.5259L24.5177 4.36483Z" fill="black"/>
<path d="M59.1643 4.3854C54.379 4.3854 55.3229 8.53631 56.7881 10.9676C57.9741 12.9135 59.1479 14.7648 60.5146 16.9287C63.3874 21.6884 65.0291 26.1396 62.8703 30.6361C60.2437 36.0953 55.9837 37.4858 50.9685 38V33.6146C54.1779 33.2814 57.0179 32.3269 58.717 28.7602C61.7089 22.4824 51.777 14.7318 50.9931 8.84898C50.1025 2.17625 56.2053 2.00874e-06 59.0782 2.00874e-06H61.3518V4.3854H59.1643Z" fill="black"/>
<path d="M26.4179 0H37.9299L37.9504 4.36484H31.0022V7.19108H34.8477V11.5724H31.0022V33.6146H37.9299V37.9794H26.4179V0Z" fill="black"/>
<path d="M69.6667 0H65.1481V37.9794H69.6667V0Z" fill="black"/>
<path d="M47.7304 4.3854C42.945 4.3854 43.889 8.53631 45.3541 10.9676C46.5402 12.9135 47.714 14.7648 49.0806 16.9287C51.9535 21.6884 53.5951 26.1396 51.4364 30.6361C48.8098 36.0953 44.5497 37.4858 39.5345 38V33.6146C42.7439 33.2814 45.5799 32.3269 47.283 28.7602C50.2749 22.4824 40.3431 14.7318 39.5592 8.84898C38.6686 2.17625 44.7714 2.00874e-06 47.6442 2.00874e-06H49.9138V4.3854H47.7304Z" fill="black"/>
</svg>
